<svg version="1.2" xmlns="http://www.w3.org/2000/svg" viewBox="0 0 892 574" width="892" height="574">
	<title>undraw_donut_love_kau1-svg</title>
	<style>
		.s0 { fill: #e6e6e6 } 
		.s1 { fill: #3f3d56 } 
		.s2 { fill: #6c63ff } 
		.s3 { opacity: .2;fill: #000000 } 
		.s4 { fill: #ffffff } 
		.s5 { fill: #ff6584 } 
		.s6 { fill: #2f2e41 } 
		.s7 { fill: #cfcce0 } 
	</style>
	<g id="papers">
		<path id="Layer" class="s0" d="m68.7 461.8l-6.3-24.8q-4.2-1.8-8.4-3.5-4.2-1.6-8.5-3.1-4.3-1.6-8.6-3-4.3-1.4-8.7-2.7l-0.8 11.5-3.2-12.7c-14.4-4.1-24.2-5.9-24.2-5.9 0 0 13.2 50.4 41 88.9l32.4 5.7-25.2 3.6q1.4 1.6 2.7 3.1 1.4 1.5 2.8 3 1.4 1.5 2.8 3 1.5 1.4 3 2.8c40.4 37.5 85.4 54.7 100.5 38.4 15.1-16.2-5.4-59.8-45.8-97.4-12.5-11.6-28.3-20.9-44-28.3z"/>
		<path id="Layer" class="s0" d="m128.6 434.8l7.4-24.5q-2.6-3.6-5.4-7.2-2.8-3.6-5.6-7.2-2.9-3.5-5.9-6.9-2.9-3.5-6-6.8l-6.7 9.4 3.9-12.5c-10.3-11-17.7-17.6-17.7-17.6 0 0-14.7 49.9-10.8 97.3l24.7 21.6-23.4-9.9q0.4 2 0.7 4 0.4 2 0.8 4 0.5 2 1 4 0.5 2 1 4c15.2 53 44.8 91 66.2 84.8 21.3-6.1 26.3-54 11.1-107-4.7-16.4-13.3-32.6-23-47z"/>
		<path id="Layer" class="s0" d="m821.7 487.6l14.2-8.8q0.2-3 0.4-5.9 0.2-3 0.3-5.9 0.1-3 0.1-5.9 0-3-0.1-6l-7.3 1.9 7.2-4.6c-0.3-9.7-1.2-16.2-1.2-16.2 0 0-28.5 18.3-46.8 43.2l3 21.2-7.3-14.8q-0.7 1.1-1.4 2.2-0.7 1.2-1.3 2.4-0.6 1.1-1.2 2.3-0.6 1.2-1.2 2.4c-15.1 32.6-16.8 63.9-3.7 70 13.1 6.1 36-15.4 51.2-47.9 4.6-10.1 7.3-21.7 8.7-32.9z"/>
		<path id="Layer" class="s0" d="m850.4 519.3l16.7-0.3q1.7-2.4 3.4-4.8 1.7-2.5 3.3-4.9 1.6-2.5 3.1-5 1.6-2.6 3-5.1l-7.1-2.3 8.5-0.1c4.7-8.5 7.3-14.5 7.3-14.5 0 0-33.8 0.9-62.4 12.8l-8.4 19.7 1.5-16.5q-1.2 0.6-2.4 1.2-1.2 0.7-2.3 1.3-1.2 0.7-2.3 1.4-1.1 0.7-2.3 1.5c-29.7 20-47.3 45.9-39.2 57.9 8 12 38.7 5.5 68.5-14.5 9.2-6.2 17.4-14.8 24.4-23.7z"/>
	</g>
	<g id="tree">
		<path id="Layer" class="s1" d="m277.8 384.7c0.6-0.6 1-1.5 1-2.4 0-0.8-0.4-1.7-1-2.3-0.6-0.6-1.5-1-2.3-1-0.9 0-1.8 0.4-2.4 1l-105.5 105.5c-0.6 0.6-1 1.5-1 2.3 0 0.9 0.4 1.8 1 2.4 0.6 0.6 1.5 1 2.4 1 0.8 0 1.7-0.4 2.3-1l104.8-104.9"/>
		<path id="Layer" class="s1" d="m175.9 94.9c0-2.9-1.1-5.7-3.2-7.8-2.1-2.1-4.9-3.2-7.9-3.2-2.9 0-5.7 1.1-7.8 3.2-2.1 2.1-3.3 4.9-3.3 7.8v467.6c0 2.9 1.2 5.7 3.3 7.8 2.1 2.1 4.9 3.3 7.8 3.3 3 0 5.8-1.2 7.9-3.3 2.1-2.1 3.2-4.9 3.2-7.8v-464.3"/>
		<path id="Layer" class="s1" d="m775.4 206.9c0-2.1-0.9-4.1-2.4-5.6-1.5-1.5-3.5-2.4-5.6-2.4-2.1 0-4.2 0.9-5.7 2.4-1.5 1.5-2.3 3.5-2.3 5.6v358.7c0 2.1 0.8 4.1 2.3 5.6 1.5 1.5 3.6 2.4 5.7 2.4 2.1 0 4.1-0.9 5.6-2.4 1.5-1.5 2.4-3.5 2.4-5.6v-356.3"/>
	</g>
	<g id="circle1">
		<path id="Layer" fill-rule="evenodd" class="s2" d="m325.8 109.3q3.6 9.5 6.1 19.3 2.4 9.9 3.7 20 1.2 10.1 1.2 20.3c0 84.3-63 155.4-146.7 165.6-83.7 10.2-161.9-43.7-182.2-125.5-20.3-81.9 23.7-166 102.5-196.1 78.8-30.1 167.6 3.3 207 77.9q4.8 9 8.4 18.5zm-107.3 108.8c4.4-4.2 8.1-9.1 11.2-14.3 3.1-5.3 5.4-11 7-16.9 1.6-5.9 2.4-11.9 2.4-18 0-31.3-21-58.7-51.1-66.8-30.2-8.2-62.1 4.9-77.8 31.9-15.8 27-11.5 61.2 10.5 83.4 21.9 22.3 56 27 83.2 11.7 5.3-3 10.2-6.7 14.6-11z"/>
		<path id="Layer" class="s3" d="m169.4 325.1c-21.4 0-42.7-4.2-62.6-12.3-19.9-8-38.1-19.8-53.5-34.8-15.4-14.9-27.8-32.7-36.5-52.4-8.6-19.6-13.4-40.7-14.1-62.2q-0.1 2.7-0.1 5.4c0 44.3 17.6 86.8 48.9 118.1 31.2 31.3 73.7 48.8 117.9 48.8 44.3 0 86.7-17.5 118-48.8 31.3-31.3 48.9-73.8 48.9-118.1q0-2.7-0.1-5.4c-0.7 21.5-5.5 42.6-14.1 62.2-8.7 19.7-21.1 37.5-36.5 52.4-15.5 15-33.6 26.8-53.5 34.8-19.9 8.1-41.2 12.3-62.7 12.3z"/>
		<path id="Layer" fill-rule="evenodd" class="s3" d="m201.8 92c10.1 4.1 19.2 10.3 27 18 7.7 7.7 13.8 16.9 18 27 4.2 10.1 6.4 20.9 6.4 31.9 0 33.6-20.3 64-51.4 76.9-31.1 12.8-66.9 5.7-90.7-18.1-23.8-23.8-31-59.6-18.1-90.7 12.9-31.1 43.3-51.4 76.9-51.4 11 0 21.8 2.2 31.9 6.4zm16.7 126.1c4.4-4.2 8.1-9.1 11.2-14.3 3.1-5.3 5.4-11 7-16.9 1.6-5.9 2.4-11.9 2.4-18 0-31.3-21-58.7-51.1-66.8-30.2-8.2-62.1 4.9-77.8 31.9-15.8 27-11.5 61.2 10.5 83.4 21.9 22.3 56 27 83.2 11.7 5.3-3 10.2-6.7 14.6-11z"/>
		<path id="Layer" class="s0" d="m317.4 88.8v27.8c0 2-0.6 4-1.7 5.6-1.1 1.7-2.8 3-4.6 3.8-1.9 0.7-4 0.9-6 0.5-1.9-0.4-3.7-1.5-5.1-2.9v3.1c0 3.2-1.3 6.3-3.6 8.6-2.2 2.2-5.3 3.5-8.5 3.5-3.2 0-6.3-1.3-8.5-3.5-2.3-2.3-3.6-5.4-3.6-8.6v-2.6c-1.4 1.3-3.2 2.2-5.2 2.5-1.9 0.3-3.9 0-5.7-0.8-1.8-0.8-3.3-2.1-4.4-3.7-1-1.7-1.6-3.6-1.6-5.5l-0.5-29.5v-6.9c0-1-0.4-2.1-1.2-2.9-0.7-0.7-1.8-1.2-2.9-1.2-1.1 0-2.1 0.5-2.9 1.2-0.8 0.8-1.2 1.9-1.2 2.9v6.9l-0.5 24.6c0 2.7-1 5.3-3 7.2-1.9 1.9-4.4 3-7.1 3-2.7 0-5.3-1.1-7.2-3-1.9-1.9-3-4.5-3-7.2l-1.2-24.6v-12.7c0-1.7-0.7-3.5-2-4.7-1.3-1.3-3-2-4.8-2-1.8 0-3.5 0.7-4.7 2-1.3 1.2-2 3-2 4.7v12.7l-0.8 24.6c0 2.1-0.6 4.2-1.8 5.9-1.3 1.7-3 3-5 3.7-2 0.7-4.2 0.8-6.2 0.2-2-0.6-3.8-1.9-5.1-3.5-0.8 1-1.8 1.9-2.9 2.5-1.1 0.7-2.3 1.1-3.6 1.3-1.3 0.2-2.6 0.1-3.9-0.2-1.2-0.3-2.4-0.9-3.4-1.6v6.7c0 3.2-1.3 6.3-3.6 8.6-2.2 2.2-5.3 3.5-8.5 3.5-3.2 0-6.3-1.3-8.5-3.5-2.3-2.3-3.6-5.4-3.6-8.6v-20.8c0 2.3-0.8 4.6-2.2 6.4-1.5 1.8-3.5 3.1-5.8 3.5-2.3 0.5-4.6 0.2-6.7-0.8-2.1-1.1-3.7-2.8-4.7-4.9v16.6c0 3.2-1.2 6.3-3.5 8.6-2.3 2.2-5.3 3.5-8.5 3.5-3.2 0-6.3-1.3-8.6-3.5-2.2-2.3-3.5-5.4-3.5-8.6v-39.6h-0.1v39.6c0 3.2-1.2 6.3-3.5 8.6-2.2 2.2-5.3 3.5-8.5 3.5-3.2 0-6.3-1.3-8.5-3.5-2.3-2.3-3.6-5.4-3.6-8.6v-16.5c-0.9 2.1-2.6 3.8-4.7 4.8-2.1 1-4.4 1.3-6.7 0.8-2.2-0.5-4.2-1.7-5.7-3.5-1.4-1.8-2.2-4.1-2.2-6.4v-18.8h-1v33.8c0 3.2-1.3 6.3-3.6 8.6-2.2 2.2-5.3 3.5-8.5 3.5-3.2 0-6.3-1.3-8.5-3.5-2.3-2.3-3.6-5.4-3.6-8.6v-15c0 2.7-1 5.3-2.9 7.2-1.9 1.9-4.5 3-7.2 3-2.7 0-5.3-1.1-7.2-3-1.9-1.9-3-4.5-3-7.2v-22.3c14.9-25.9 36.5-47.3 62.4-62 26-14.6 55.4-22.1 85.2-21.6 29.8 0.6 59 9.1 84.4 24.7 25.4 15.6 46.2 37.7 60.1 64.1z"/>
		<path id="Layer" class="s3" d="m102.2 133c-1.6 0-3.2-0.3-4.6-0.9-1.5-0.6-2.8-1.5-3.9-2.6-1.2-1.2-2-2.5-2.7-3.9-0.6-1.5-0.9-3.1-0.9-4.7v6.3c0 3.2 1.3 6.3 3.6 8.5 2.2 2.3 5.3 3.6 8.5 3.6 3.2 0 6.3-1.3 8.5-3.6 2.3-2.2 3.5-5.3 3.5-8.5v-6.3c0 1.6-0.3 3.2-0.9 4.7-0.6 1.4-1.5 2.7-2.6 3.9-1.1 1.1-2.4 2-3.9 2.6-1.5 0.6-3 0.9-4.6 0.9z"/>
		<path id="Layer" class="s3" d="m126.4 133c-1.6 0-3.2-0.3-4.6-0.9-1.5-0.6-2.8-1.5-4-2.6-1.1-1.2-2-2.5-2.6-3.9-0.6-1.5-0.9-3.1-0.9-4.7v6.3c0 3.2 1.3 6.3 3.5 8.5 2.3 2.3 5.4 3.6 8.6 3.6 3.2 0 6.2-1.3 8.5-3.6 2.3-2.2 3.5-5.3 3.5-8.5v-6.3c0 1.6-0.3 3.2-0.9 4.7-0.6 1.4-1.5 2.7-2.6 3.9-1.1 1.1-2.5 2-3.9 2.6-1.5 0.6-3 0.9-4.6 0.9z"/>
		<path id="Layer" class="s3" d="m90.1 104.4c-0.9 2.1-2.6 3.8-4.7 4.8-2.1 1-4.4 1.3-6.7 0.8-2.2-0.5-4.2-1.7-5.7-3.5-1.4-1.8-2.2-4.1-2.2-6.4v6.3c0 2.3 0.8 4.5 2.2 6.3 1.5 1.9 3.5 3.1 5.7 3.6 2.3 0.5 4.6 0.2 6.7-0.8 2.1-1 3.8-2.7 4.7-4.8z"/>
		<path id="Layer" class="s3" d="m114.2 81.2h0.1v6.3h-0.1z"/>
		<path id="Layer" class="s3" d="m45.6 100.1c0 2.7-1 5.3-2.9 7.2-1.9 1.9-4.5 3-7.2 3-2.7 0-5.3-1.1-7.2-3-1.9-1.9-3-4.5-3-7.2v6.3c0 2.7 1.1 5.3 3 7.2 1.9 1.9 4.5 2.9 7.2 2.9 2.7 0 5.3-1 7.2-2.9 1.9-1.9 2.9-4.5 2.9-7.2z"/>
		<path id="Layer" class="s3" d="m69.8 81.2h1v6.3h-1z"/>
		<path id="Layer" class="s3" d="m57.7 127.2c-1.6 0-3.2-0.3-4.6-0.9-1.5-0.6-2.8-1.5-3.9-2.6-1.1-1.2-2-2.5-2.6-4-0.6-1.4-1-3-1-4.6v6.3c0 3.2 1.3 6.3 3.6 8.5 2.2 2.3 5.3 3.6 8.5 3.6 3.2 0 6.3-1.3 8.5-3.6 2.3-2.2 3.6-5.3 3.6-8.5v-6.3c0 1.6-0.4 3.2-1 4.6-0.6 1.5-1.5 2.8-2.6 4-1.1 1.1-2.4 2-3.9 2.6-1.5 0.6-3 0.9-4.6 0.9z"/>
		<path id="Layer" class="s3" d="m169.9 133c-1.6 0-3.2-0.3-4.6-0.9-1.5-0.6-2.8-1.5-3.9-2.6-1.2-1.2-2-2.5-2.6-3.9-0.7-1.5-1-3.1-1-4.7v6.3c0 3.2 1.3 6.3 3.6 8.5 2.2 2.3 5.3 3.6 8.5 3.6 3.2 0 6.3-1.3 8.5-3.6 2.3-2.2 3.6-5.3 3.6-8.5v-6.3c0 1.6-0.4 3.2-1 4.7-0.6 1.4-1.5 2.7-2.6 3.9-1.1 1.1-2.4 2-3.9 2.6-1.5 0.6-3 0.9-4.6 0.9z"/>
		<path id="Layer" class="s3" d="m258.4 74.4c0-1-0.4-2.1-1.2-2.9-0.7-0.7-1.8-1.2-2.9-1.2-1.1 0-2.1 0.5-2.9 1.2-0.8 0.8-1.2 1.9-1.2 2.9v6.3c0-1.1 0.4-2.1 1.2-2.9 0.8-0.8 1.8-1.2 2.9-1.2 1.1 0 2.2 0.4 2.9 1.2 0.8 0.8 1.2 1.8 1.2 2.9z"/>
		<path id="Layer" class="s3" d="m157.8 100.1c0 2.3-0.8 4.6-2.2 6.4-1.5 1.8-3.5 3.1-5.8 3.5-2.3 0.5-4.6 0.2-6.7-0.8-2.1-1.1-3.7-2.8-4.7-4.9v6.3c1 2.1 2.6 3.8 4.7 4.9 2.1 1 4.4 1.3 6.7 0.8 2.3-0.5 4.3-1.7 5.8-3.5 1.4-1.8 2.2-4.1 2.2-6.4z"/>
		<path id="Layer" class="s3" d="m239.6 116.1c-1.4 0-2.7-0.3-3.9-0.8-1.3-0.5-2.4-1.3-3.3-2.2-1-1-1.7-2.1-2.2-3.3-0.5-1.2-0.8-2.6-0.8-3.9l-1.2-24.7v6.3l1.2 24.7c0 2.7 1.1 5.3 3 7.2 1.9 1.9 4.5 3 7.2 3 2.7 0 5.2-1.1 7.1-3 2-1.9 3-4.5 3-7.2l0.5-24.7v-6.3l-0.5 24.7c0 1.3-0.2 2.7-0.7 3.9-0.6 1.2-1.3 2.3-2.3 3.3-0.9 0.9-2 1.7-3.2 2.2-1.3 0.5-2.6 0.8-3.9 0.8z"/>
		<path id="Layer" class="s3" d="m307.3 120.9q-1.1 0-2.1-0.2-1-0.2-1.9-0.6-1-0.4-1.8-1-0.8-0.6-1.5-1.3v3.1c0 3.2-1.3 6.3-3.6 8.6-2.2 2.2-5.3 3.5-8.5 3.5-3.2 0-6.3-1.3-8.5-3.5-2.3-2.3-3.6-5.4-3.6-8.6v-2.6c-1.4 1.3-3.2 2.2-5.2 2.5-1.9 0.3-3.9 0-5.7-0.8-1.8-0.8-3.3-2.1-4.4-3.7-1-1.7-1.6-3.6-1.6-5.6l-0.5-29.5v6.3l0.5 29.5c0 2 0.6 3.9 1.6 5.6 1.1 1.6 2.6 2.9 4.4 3.7 1.8 0.8 3.8 1.1 5.7 0.8 2-0.3 3.8-1.2 5.2-2.5v2.6c0 3.2 1.3 6.3 3.6 8.5 2.2 2.3 5.3 3.6 8.5 3.6 3.2 0 6.3-1.3 8.5-3.6 2.3-2.2 3.6-5.3 3.6-8.5v-3.1c1.4 1.4 3.2 2.4 5.1 2.9 2 0.4 4.1 0.2 6-0.5 1.8-0.8 3.5-2.1 4.6-3.8 1.1-1.7 1.7-3.6 1.7-5.7v-6.3c0 1.4-0.2 2.7-0.7 3.9-0.6 1.3-1.3 2.4-2.2 3.3-1 1-2.1 1.7-3.3 2.2-1.3 0.5-2.6 0.8-3.9 0.8z"/>
		<path id="Layer" class="s3" d="m203.8 116.1q-1.2 0-2.3-0.3-1.1-0.3-2.2-0.8-1-0.5-1.9-1.2-0.9-0.7-1.6-1.6c-0.8 1-1.8 1.9-2.9 2.5-1.1 0.6-2.3 1.1-3.6 1.3-1.3 0.1-2.6 0.1-3.9-0.2-1.2-0.3-2.4-0.9-3.4-1.6v6.3c1 0.7 2.2 1.3 3.4 1.6 1.3 0.3 2.6 0.3 3.9 0.1 1.3-0.1 2.5-0.6 3.6-1.2 1.1-0.7 2.1-1.5 2.9-2.5 1.3 1.6 3.1 2.8 5.1 3.4 2 0.6 4.2 0.6 6.2-0.1 2-0.7 3.7-2 5-3.7 1.2-1.7 1.8-3.8 1.8-5.9l0.8-24.7v-6.3l-0.8 24.7c0 1.3-0.2 2.7-0.7 3.9-0.5 1.2-1.3 2.3-2.2 3.3-1 0.9-2.1 1.7-3.3 2.2-1.3 0.5-2.6 0.8-3.9 0.8z"/>
		<path id="Layer" class="s3" d="m228.2 68.6c0-1.7-0.7-3.5-2-4.7-1.3-1.3-3-2-4.8-2-1.8 0-3.5 0.7-4.7 2-1.3 1.2-2 3-2 4.7v6.3c0-1.8 0.7-3.5 2-4.7 1.2-1.3 2.9-2 4.7-2 1.8 0 3.5 0.7 4.8 2 1.3 1.2 2 2.9 2 4.7z"/>
		<path id="Layer" class="s1" d="m113.1 69.9h2.4v13h-2.4z"/>
		<path id="Layer" class="s1" d="m158.8 62.9h2.4v13h-2.4z"/>
		<path id="Layer" class="s1" d="m100.8 114.1h2.4v13.1h-2.4z"/>
		<path id="Layer" class="s1" d="m200 89.9l2 1.4-7.5 10.8-2-1.4z"/>
		<path id="Layer" class="s1" d="m72.4 72.6l1.5-1.9 10.3 8.1-1.5 1.9z"/>
		<path id="Layer" class="s1" d="m214.6 23.7l1.5-1.9 10.2 8.1-1.5 1.9z"/>
		<path id="Layer" class="s1" d="m45.8 86.1l1.5-1.9 10.3 8.1-1.5 1.9z"/>
		<path id="Layer" class="s4" d="m122.1 39.2h2.4v13h-2.4z"/>
		<path id="Layer" class="s4" d="m55.8 106.4h2.4v13.1h-2.4z"/>
		<path id="Layer" class="s4" d="m169 20.3h2.4v13.1h-2.4z"/>
		<path id="Layer" class="s4" d="m182.7 65l2.1 1-5.8 11.7-2.2-1.1z"/>
		<path id="Layer" class="s4" d="m171.5 113.3l2.2 1.1-5.9 11.7-2.1-1.1z"/>
		<path id="Layer" class="s4" d="m138.9 89.7l1.6-1.8 9.7 8.6-1.6 1.8z"/>
		<path id="Layer" class="s4" d="m91 33.1l1.6-1.8 9.7 8.6-1.6 1.8z"/>
		<path id="Layer" class="s4" d="m250.1 54.8l1.6-1.8 9.8 8.7-1.6 1.8z"/>
		<path id="Layer" class="s4" d="m191.6 12.3l1.6-1.8 9.7 8.6-1.6 1.9z"/>
		<path id="Layer" class="s5" d="m140.4 62.9h2.4v13h-2.4z"/>
		<path id="Layer" class="s5" d="m277 70.2l2.3 0.9-5.1 12-2.3-0.9z"/>
		<path id="Layer" class="s5" d="m92.3 85.1l2.1-1.2 6.6 11.3-2.1 1.3z"/>
		<path id="Layer" class="s5" d="m230.7 76l2.1-1.3 6.5 11.4-2.1 1.2z"/>
		<path id="Layer" class="s5" d="m144.6 28.1l2.1-1.2 6.5 11.3-2.1 1.2z"/>
		<path id="Layer" class="s5" d="m247.1 25.7l2.1-1.2 6.5 11.3-2.1 1.2z"/>
		<path id="Layer" class="s5" d="m114.1 15l2.1-1.2 6.5 11.3-2.1 1.2z"/>
		<path id="Layer" class="s5" d="m200.9 36.8h2.4v13h-2.4z"/>
		<path id="Layer" class="s5" d="m61.6 58.5h2.4v13.1h-2.4z"/>
	</g>
	<g id="circle 2">
		<path id="Layer" fill-rule="evenodd" class="s2" d="m296.7 382.1c2.2 3.9 3.9 8.1 5 12.4 1.1 4.4 1.6 8.9 1.5 13.4-0.2 4.5-0.9 9-2.2 13.3-6.6 21.3-26.6 35.6-48.9 35-22.3-0.6-41.5-16-46.9-37.7-5.4-21.7 4.4-44.3 23.8-55.2 19.4-11 43.8-7.7 59.6 8.1 3.2 3.1 5.9 6.7 8.1 10.7zm-24.5 32c4.2-9.3 1-20.2-7.5-25.8-8.5-5.5-19.8-4.1-26.6 3.5-6.8 7.5-7.1 18.9-0.7 26.8q0.7 0.8 1.4 1.6 1 0.9 2 1.7 1.1 0.8 2.2 1.5 1.2 0.7 2.4 1.2 1.2 0.5 2.5 0.8c9.8 2.8 20.1-2 24.3-11.3z"/>
		<path id="Layer" class="s3" d="m220.4 439.4c-4.5-4.6-8.1-9.9-10.6-15.8-2.5-5.9-3.9-12.2-4-18.6-0.1-6.4 1.1-12.8 3.4-18.8 2.3-5.9 5.7-11.4 10.1-16.1q-0.6 0.6-1.2 1.2c-9.3 9.3-14.5 21.9-14.5 35.1 0 13.2 5.2 25.9 14.5 35.2 9.4 9.3 22 14.6 35.2 14.6 13.2 0 25.9-5.3 35.2-14.6q0.6-0.6 1.1-1.2c-4.6 4.4-10.1 7.9-16.1 10.2-6 2.3-12.3 3.4-18.7 3.3-6.4-0.1-12.7-1.4-18.6-3.9-5.9-2.5-11.3-6.1-15.8-10.6z"/>
		<path id="Layer" fill-rule="evenodd" class="s3" d="m279 395.9c1.4 3.4 2.1 7 2.1 10.6 0 3.7-0.7 7.3-2.1 10.6-1.4 3.4-3.5 6.4-6 9-7.9 7.9-19.8 10.3-30.2 6-10.3-4.3-17.1-14.4-17.1-25.6 0-11.2 6.8-21.3 17.1-25.5 10.4-4.3 22.3-2 30.2 6 2.5 2.5 4.6 5.6 6 8.9zm-6.3 2.3c-3-7.6-10.1-12.8-18.2-13.2-8.1-0.4-15.8 4-19.5 11.2-3.6 7.3-2.7 16.1 2.4 22.4q0.7 0.8 1.4 1.6c2 1.9 4.2 3.4 6.7 4.4 2.5 1.1 5.2 1.6 7.9 1.6 2.7 0 5.4-0.5 7.9-1.6 2.5-1 4.8-2.5 6.7-4.4 5.8-5.8 7.6-14.4 4.7-22z"/>
		<path id="Layer" class="s0" d="m302 420.2l-5.9 5.8c-0.4 0.4-1 0.7-1.6 0.8-0.5 0.2-1.2 0.1-1.7-0.1-0.6-0.3-1-0.7-1.4-1.2-0.3-0.5-0.5-1.1-0.5-1.7l-0.6 0.7c-0.7 0.7-1.6 1-2.6 1-0.9 0-1.8-0.3-2.5-1-0.7-0.7-1.1-1.6-1.1-2.6 0-0.9 0.4-1.8 1.1-2.5l0.6-0.6c-0.6 0-1.2-0.2-1.7-0.5-0.4-0.4-0.8-0.8-1-1.4-0.2-0.5-0.3-1.1-0.1-1.7 0.1-0.6 0.4-1.1 0.8-1.5l6.1-6.3 1.4-1.5c0.3-0.2 0.4-0.5 0.4-0.8 0-0.4-0.1-0.7-0.4-0.9-0.2-0.2-0.5-0.4-0.8-0.4-0.4 0-0.7 0.2-0.9 0.4l-1.4 1.4-5.3 5.1c-0.6 0.6-1.4 0.9-2.2 0.9-0.8 0-1.6-0.3-2.1-0.9-0.6-0.5-0.9-1.3-0.9-2.1 0-0.8 0.3-1.6 0.9-2.2l4.9-5.4 2.7-2.7c0.3-0.4 0.6-0.9 0.6-1.4 0-0.5-0.3-1-0.6-1.4-0.4-0.4-0.9-0.6-1.4-0.6-0.6 0-1.1 0.2-1.5 0.6l-2.6 2.6-5.4 5.1q-0.9-0.6-1.8-1-0.9-0.5-1.9-0.9-1-0.5-1.9-0.8-1-0.4-2-0.7-0.2-0.1-0.3-0.3-0.2-0.2-0.3-0.4-0.1-0.2-0.2-0.5 0-0.2-0.1-0.4l-1.4 1.4c-0.7 0.7-1.6 1.1-2.5 1.1-1 0-1.9-0.4-2.6-1.1-0.6-0.7-1-1.6-1-2.5 0-1 0.4-1.9 1-2.6l4.4-4.4c-0.5 0.5-1.1 0.8-1.8 0.9-0.7 0.1-1.4-0.1-2-0.5-0.5-0.3-1-0.9-1.2-1.6-0.2-0.6-0.2-1.3 0-2l-3.5 3.5c-0.6 0.7-1.6 1.1-2.5 1.1-1 0-1.9-0.4-2.5-1.1-0.7-0.6-1.1-1.6-1.1-2.5 0-1 0.4-1.9 1.1-2.6l8.3-8.3-8.4 8.3c-0.6 0.7-1.6 1.1-2.5 1.1-1 0-1.9-0.4-2.5-1.1-0.7-0.6-1.1-1.6-1.1-2.5 0-1 0.4-1.9 1.1-2.5l3.4-3.5c-0.6 0.2-1.3 0.2-2 0-0.6-0.2-1.2-0.7-1.5-1.3-0.4-0.5-0.6-1.2-0.5-1.9 0.1-0.7 0.4-1.3 0.9-1.8l3.9-4-0.2-0.2-7.1 7.1c-0.7 0.7-1.6 1.1-2.6 1.1-0.9 0-1.8-0.4-2.5-1.1-0.7-0.6-1.1-1.6-1.1-2.5 0-1 0.4-1.9 1.1-2.5l3.2-3.2c-0.6 0.6-1.4 0.9-2.2 0.9-0.8 0-1.5-0.3-2.1-0.9-0.6-0.6-0.9-1.4-0.9-2.2 0-0.8 0.3-1.5 0.9-2.1l4.7-4.7c8.6-2.3 17.6-2.3 26.2 0.1 8.6 2.4 16.3 7 22.5 13.4 6.2 6.4 10.5 14.3 12.6 23 2.1 8.6 1.8 17.7-0.8 26.2z"/>
		<path id="Layer" class="s3" d="m247.3 384.1q-0.5-0.5-0.8-1.2-0.3-0.6-0.3-1.3 0-0.7 0.3-1.4 0.3-0.7 0.8-1.2l-1.3 1.4c-0.7 0.6-1.1 1.5-1.1 2.5 0 0.9 0.4 1.9 1.1 2.5 0.6 0.7 1.5 1.1 2.5 1.1 0.9 0 1.9-0.4 2.5-1.1l1.4-1.3q-0.5 0.5-1.2 0.8-0.7 0.3-1.4 0.3-0.7 0-1.4-0.3-0.6-0.3-1.1-0.8z"/>
		<path id="Layer" class="s3" d="m252.4 389.2q-0.5-0.5-0.8-1.2-0.3-0.6-0.3-1.3 0-0.7 0.3-1.4 0.3-0.7 0.8-1.2l-1.4 1.4c-0.6 0.6-1 1.5-1 2.5 0 0.9 0.4 1.9 1 2.5 0.7 0.7 1.6 1.1 2.6 1.1 0.9 0 1.9-0.4 2.5-1.1l1.4-1.3q-0.5 0.5-1.2 0.8-0.7 0.3-1.4 0.3-0.7 0-1.4-0.3-0.6-0.3-1.1-0.8z"/>
		<path id="Layer" class="s3" d="m250.8 375.5c-0.7 0.3-1.4 0.3-2 0.1-0.7-0.3-1.3-0.7-1.6-1.3-0.4-0.6-0.6-1.2-0.5-1.9 0.1-0.7 0.4-1.4 0.9-1.8l-1.3 1.3c-0.5 0.5-0.8 1.1-0.9 1.8-0.1 0.7 0.1 1.4 0.5 2 0.3 0.5 0.9 1 1.5 1.2 0.7 0.2 1.4 0.2 2 0z"/>
		<path id="Layer" class="s3" d="m259.4 377.1l1.3-1.4v0.1l-1.3 1.3z"/>
		<path id="Layer" class="s3" d="m242.3 365.3c-0.6 0.5-1.3 0.8-2.2 0.8-0.8 0-1.5-0.3-2.1-0.8-0.6-0.6-0.9-1.4-0.9-2.2 0-0.8 0.3-1.6 0.9-2.1l-1.3 1.3c-0.6 0.6-0.9 1.3-0.9 2.1 0 0.8 0.3 1.6 0.9 2.2 0.6 0.6 1.3 0.9 2.1 0.9 0.8 0 1.6-0.3 2.2-0.9z"/>
		<path id="Layer" class="s3" d="m250 367.7l1.3-1.3 0.3 0.2-1.4 1.3z"/>
		<path id="Layer" class="s3" d="m239.1 373.5q-0.5-0.5-0.8-1.2-0.2-0.6-0.2-1.3 0-0.7 0.2-1.4 0.3-0.7 0.8-1.2l-1.3 1.4c-0.7 0.6-1.1 1.5-1.1 2.5 0 0.9 0.4 1.9 1.1 2.5 0.7 0.7 1.6 1.1 2.5 1.1 1 0 1.9-0.4 2.6-1.1l1.3-1.3q-0.5 0.5-1.2 0.8-0.6 0.3-1.3 0.3-0.8 0-1.4-0.3-0.7-0.3-1.2-0.8z"/>
		<path id="Layer" class="s3" d="m261.5 398.4q-0.5-0.5-0.7-1.2-0.3-0.6-0.3-1.4 0-0.7 0.3-1.3 0.2-0.7 0.7-1.2l-1.3 1.3c-0.6 0.7-1 1.6-1 2.6 0 0.9 0.4 1.8 1 2.5 0.7 0.7 1.6 1.1 2.6 1.1 0.9 0 1.8-0.4 2.5-1.1l1.3-1.3q-0.5 0.5-1.1 0.8-0.7 0.2-1.4 0.2-0.7 0-1.4-0.2-0.6-0.3-1.2-0.8z"/>
		<path id="Layer" class="s3" d="m292.6 404.7c0.2-0.2 0.3-0.5 0.3-0.9 0-0.3-0.1-0.6-0.3-0.8-0.3-0.3-0.6-0.4-0.9-0.4-0.3 0-0.6 0.1-0.9 0.4l-1.3 1.3c0.2-0.2 0.5-0.4 0.9-0.4 0.3 0 0.6 0.2 0.8 0.4 0.3 0.2 0.4 0.5 0.4 0.9 0 0.3-0.1 0.6-0.4 0.8z"/>
		<path id="Layer" class="s3" d="m265.9 388.9c-0.4 0.5-1.1 0.8-1.8 0.9-0.7 0.1-1.4-0.1-1.9-0.5-0.6-0.4-1.1-0.9-1.3-1.6-0.2-0.6-0.2-1.4 0.1-2l-1.4 1.3c-0.2 0.7-0.2 1.4 0 2 0.2 0.7 0.6 1.3 1.2 1.6 0.6 0.4 1.3 0.6 2 0.5 0.7-0.1 1.3-0.4 1.8-0.9z"/>
		<path id="Layer" class="s3" d="m279.8 409.5q-0.4-0.4-0.7-1-0.2-0.5-0.2-1.1 0-0.6 0.2-1.2 0.3-0.6 0.7-1l4.9-5.4-1.3 1.3-4.9 5.4c-0.6 0.6-0.9 1.4-0.9 2.2 0 0.8 0.3 1.6 0.9 2.1 0.5 0.6 1.3 0.9 2.1 0.9 0.8 0 1.6-0.3 2.2-0.9l5.3-5.1 1.3-1.3-5.3 5.1q-0.4 0.4-1 0.7-0.6 0.2-1.2 0.2-0.6 0-1.1-0.2-0.6-0.3-1-0.7z"/>
		<path id="Layer" class="s3" d="m293.1 424.8q-0.3-0.2-0.4-0.5-0.2-0.2-0.3-0.5-0.1-0.3-0.2-0.6 0-0.3 0-0.6l-0.7 0.7c-0.7 0.6-1.6 1-2.5 1-1 0-1.9-0.4-2.6-1-0.7-0.7-1-1.6-1-2.6 0-0.9 0.3-1.9 1-2.5l0.6-0.6c-0.6 0-1.2-0.2-1.6-0.6-0.5-0.3-0.9-0.8-1.1-1.3-0.2-0.6-0.2-1.2-0.1-1.7 0.1-0.6 0.4-1.1 0.8-1.5l6.1-6.4-1.3 1.4-6.1 6.3c-0.4 0.4-0.7 0.9-0.8 1.5-0.2 0.6-0.1 1.2 0.1 1.7 0.2 0.6 0.6 1 1 1.4 0.5 0.3 1.1 0.5 1.7 0.5l-0.6 0.6c-0.7 0.7-1.1 1.6-1.1 2.5 0 1 0.4 1.9 1.1 2.6 0.7 0.7 1.6 1 2.5 1 1 0 1.9-0.3 2.6-1l0.6-0.7c0 0.6 0.2 1.2 0.5 1.7 0.4 0.5 0.8 0.9 1.4 1.2 0.5 0.2 1.2 0.3 1.7 0.2 0.6-0.2 1.2-0.5 1.6-0.9l1.3-1.3q-0.4 0.4-0.9 0.6-0.6 0.3-1.2 0.3-0.6 0-1.2-0.3-0.5-0.2-0.9-0.6z"/>
		<path id="Layer" class="s3" d="m272.3 402q0-0.7-0.2-1.4-0.2-0.6-0.7-1.1-0.5-0.5-1.2-0.8-0.6-0.2-1.3-0.1-0.2-0.2-0.3-0.4-0.1-0.1-0.3-0.4-0.1-0.2-0.1-0.4-0.1-0.2-0.1-0.4l-1.4 1.3q0.9 0.2 1.6 0.7 0.7 0.5 1.3 1.1 0.6 0.7 0.9 1.5 0.3 0.8 0.4 1.7 0.5 0.4 1 0.6 0.6 0.3 1.2 0.3 0.6 0 1.1-0.3 0.6-0.2 1-0.6l5.4-5.1 1.3-1.3-5.4 5.1q-0.4 0.4-0.9 0.6-0.6 0.2-1.2 0.2-0.6 0-1.2-0.2-0.5-0.2-0.9-0.6z"/>
		<path id="Layer" class="s3" d="m287.4 397.1c0.4-0.4 0.6-0.9 0.6-1.4 0-0.6-0.2-1.1-0.6-1.4-0.4-0.4-0.9-0.6-1.4-0.6-0.6 0-1.1 0.2-1.4 0.6l-1.4 1.3c0.4-0.4 0.9-0.6 1.5-0.6 0.5 0 1 0.2 1.4 0.6 0.4 0.4 0.6 0.9 0.6 1.4 0 0.5-0.2 1.1-0.6 1.4z"/>
		<path id="Layer" class="s1" d="m262.9 373.1l0.5 0.5-2.8 2.8-0.5-0.5z"/>
		<path id="Layer" class="s1" d="m274 381.3l0.5 0.5-2.7 2.7-0.6-0.5z"/>
		<path id="Layer" class="s1" d="m285 375.3l0.5 0.5-2.7 2.7-0.6-0.5z"/>
		<path id="Layer" class="s1" d="m251 379.8l0.5 0.5-2.8 2.8-0.5-0.5z"/>
		<path id="Layer" class="s1" d="m277 395.6l0.1 0.8-3.8 0.7-0.2-0.8z"/>
		<path id="Layer" class="s1" d="m293 388.6l0.1 0.8-3.8 0.7-0.2-0.8z"/>
		<path id="Layer" class="s1" d="m253.7 365.1l0.8-0.1 0.4 3.9-0.7 0.1z"/>
		<path id="Layer" class="s1" d="m245.3 362.3h0.7l0.4 3.8-0.7 0.1z"/>
		<path id="Layer" class="s4" d="m271.2 368.5l0.6 0.5-2.8 2.8-0.5-0.5z"/>
		<path id="Layer" class="s4" d="m292.2 382.5l0.6 0.5-2.8 2.8-0.5-0.5z"/>
		<path id="Layer" class="s4" d="m300.2 402.5l0.6 0.5-2.8 2.8-0.5-0.5z"/>
		<path id="Layer" class="s4" d="m243.1 368.7l0.5 0.5-2.7 2.8-0.5-0.5z"/>
		<path id="Layer" class="s4" d="m278.6 386.7l0.2 0.7-3.7 1.2-0.2-0.6z"/>
		<path id="Layer" class="s4" d="m266 394.6l0.3 0.7-3.7 1.2-0.3-0.7z"/>
		<path id="Layer" class="s4" d="m264.1 382.7h0.8l0.2 3.9h-0.7z"/>
		<path id="Layer" class="s4" d="m266 360.7l0.7-0.1 0.2 3.9-0.7 0.1z"/>
		<path id="Layer" class="s5" d="m270.1 377.4l0.5 0.5-2.7 2.8-0.5-0.6z"/>
		<path id="Layer" class="s5" d="m294.1 411.4l0.5 0.5-2.7 2.8-0.5-0.6z"/>
		<path id="Layer" class="s5" d="m298.1 394.4l0.5 0.5-2.7 2.8-0.5-0.6z"/>
		<path id="Layer" class="s5" d="m255.3 372l0.7 0.1-1 3.8-0.7-0.2z"/>
		<path id="Layer" class="s5" d="m278.3 370.9l0.7 0.2-1 3.8-0.7-0.2z"/>
		<path id="Layer" class="s5" d="m274.7 361.8l0.7 0.1-1.1 3.8-0.6-0.2z"/>
		<path id="Layer" class="s5" d="m254.4 359.9l0.5 0.5-2.7 2.7-0.5-0.5z"/>
	</g>
	<g id="circle 3">
		<path id="Layer" fill-rule="evenodd" class="s2" d="m887.6 312.2c-7.5 29.1-25.6 54.3-50.6 70.7-25.1 16.4-55.4 22.9-85 18.1-29.6-4.7-56.3-20.3-75-43.7h11.9c3 0 5.5-3.4 5.5-7.5 0-4.1-2.5-7.4-5.5-7.4h-12.5q0.1-0.2 0.1-0.5 0-0.2 0-0.4 0.1-0.3 0.1-0.5 0-0.2 0-0.5h2.7c3.1 0 5.5-3.3 5.5-7.4 0-4.1-2.4-7.4-5.5-7.4h-2.7c0-4.1-2.5-7.4-5.5-7.4h-14.9c-8.9-28.7-6.9-59.6 5.8-86.8 12.7-27.2 35.1-48.7 62.8-60.2 27.6-11.6 58.6-12.4 86.9-2.3 28.2 10.2 51.7 30.5 65.7 57 14 26.5 17.7 57.2 10.2 86.2zm-69.8-47.4c-8.7-23-32.8-36.3-56.9-31.3-24 5-40.8 26.8-39.6 51.3 1.2 24.5 20.2 44.5 44.6 47.1q0.6 0 1.3 0.1 0.6 0 1.3 0.1 0.6 0 1.3 0 0.6 0 1.3 0 3.2 0 6.3-0.4 3.2-0.4 6.3-1.2 3.1-0.8 6.1-2 3-1.2 5.8-2.8c21.4-12.1 30.8-37.9 22.2-60.9z"/>
		<path id="Layer" class="s3" d="m694.1 347.3q0-0.3 0.1-0.6 0.1-0.3 0.1-0.6 0-0.3 0.1-0.6 0-0.4 0-0.7c0-4.1-2.5-7.4-5.5-7.4h-5.1q-0.3 0.7-0.7 1.2-0.5 0.6-1.1 1-0.6 0.4-1.3 0.6-0.6 0.3-1.4 0.3h-2.7q0 0.3 0 0.5 0 0.2 0 0.5-0.1 0.2-0.1 0.4 0 0.3-0.1 0.5h12.5c2.4 0 4.4 2.1 5.2 4.9z"/>
		<path id="Layer" class="s3" d="m679.3 325.7c2.4 0 4.4 2 5.2 4.9q0.1-0.3 0.1-0.6 0.1-0.3 0.1-0.6 0.1-0.3 0.1-0.7 0-0.3 0-0.6c0-4.1-2.5-7.4-5.5-7.4h-2.7c0-4.1-2.5-7.4-5.5-7.4h-14.9q-1.3-4.1-2.2-8.3-1-4.2-1.7-8.4-0.7-4.2-1.1-8.5-0.4-4.2-0.4-8.5-0.1 1.3-0.1 2.7 0 4.5 0.4 9.1 0.3 4.5 1 9.1 0.7 4.5 1.7 8.9 1 4.5 2.4 8.9h14.9c3 0 5.5 3.3 5.5 7.4z"/>
		<path id="Layer" class="s3" d="m771.1 397.6c-8.5 0-17-0.9-25.2-2.7-8.3-1.7-16.4-4.4-24.1-7.8-7.7-3.5-15.1-7.8-21.9-12.8-6.8-5-13.1-10.7-18.7-17h-4.2c15.5 19.5 36.8 33.7 60.7 40.6 24 6.9 49.5 6.2 73.1-2.1 23.5-8.2 43.9-23.6 58.4-43.9 14.4-20.4 22.2-44.7 22.2-69.6q0-1.2-0.1-2.3c-0.3 15.6-3.7 30.9-9.9 45.2-6.2 14.3-15.1 27.2-26.2 38.1-11.2 10.9-24.3 19.5-38.7 25.4-14.5 5.9-29.9 8.9-45.4 8.9z"/>
		<path id="Layer" fill-rule="evenodd" class="s3" d="m794 227c7.2 3 13.8 7.4 19.4 12.9 5.5 5.6 9.9 12.2 13 19.5 3 7.2 4.5 15 4.5 22.9 0 24.2-14.6 46-36.9 55.3-22.4 9.2-48.1 4.1-65.3-13-17.1-17.1-22.2-42.9-13-65.3 9.3-22.3 31.1-36.9 55.4-36.9 7.8 0 15.6 1.5 22.9 4.6zm23.8 37.8c-8.7-23-32.8-36.3-56.9-31.3-24 5-40.8 26.8-39.6 51.3 1.2 24.5 20.2 44.5 44.6 47.1q0.6 0 1.3 0.1 0.6 0 1.3 0.1 0.6 0 1.3 0 0.6 0 1.3 0 3.2 0 6.3-0.4 3.2-0.4 6.3-1.2 3.1-0.8 6.1-2 3-1.2 5.8-2.8c21.4-12.1 30.8-37.9 22.2-60.9z"/>
		<path id="Layer" class="s0" d="m877.4 224v20c0 1.4-0.4 2.9-1.2 4.1-0.8 1.2-2 2.1-3.4 2.7-1.3 0.5-2.8 0.6-4.2 0.3-1.5-0.3-2.8-1-3.8-2.1v2.3c0 2.3-0.9 4.5-2.5 6.2-1.7 1.6-3.9 2.5-6.2 2.5-2.3 0-4.5-0.9-6.1-2.5-1.6-1.7-2.6-3.9-2.6-6.2v-1.9c-1 1-2.3 1.6-3.7 1.8-1.4 0.2-2.8 0-4.1-0.5-1.3-0.6-2.4-1.5-3.2-2.7-0.8-1.2-1.2-2.6-1.2-4l-0.3-21.3v-4.9c0-0.8-0.3-1.5-0.9-2.1-0.5-0.6-1.3-0.9-2.1-0.9-0.8 0-1.5 0.3-2.1 0.9-0.5 0.6-0.8 1.3-0.8 2.1v4.9l-0.4 17.8c0 1.9-0.8 3.8-2.1 5.2-1.4 1.3-3.3 2.1-5.2 2.1-2 0-3.8-0.8-5.2-2.1-1.4-1.4-2.1-3.3-2.1-5.2l-0.9-17.8v-9.1c0-1.3-0.6-2.5-1.5-3.4-0.9-0.9-2.1-1.4-3.4-1.4-1.3 0-2.5 0.5-3.4 1.4-0.9 0.9-1.5 2.1-1.5 3.4v9.1l-0.5 17.8c0 1.5-0.5 3-1.4 4.2-0.8 1.3-2.1 2.2-3.5 2.7-1.5 0.5-3 0.5-4.5 0.1-1.5-0.4-2.7-1.3-3.7-2.5q-0.9 1.1-2.1 1.8-1.2 0.7-2.6 0.9-1.4 0.2-2.8-0.1-1.3-0.3-2.5-1.1v4.8c0 2.3-0.9 4.5-2.5 6.2-1.7 1.6-3.9 2.5-6.2 2.5-2.3 0-4.5-0.9-6.1-2.5-1.6-1.7-2.6-3.9-2.6-6.2v-15c0 1.7-0.5 3.3-1.6 4.6-1 1.3-2.5 2.2-4.2 2.6-1.6 0.3-3.3 0.1-4.8-0.7-1.5-0.7-2.7-2-3.4-3.5v12c0 2.3-0.9 4.5-2.5 6.2-1.6 1.6-3.9 2.5-6.2 2.5-2.3 0-4.5-0.9-6.1-2.5-1.6-1.7-2.6-3.9-2.6-6.2v-28.6 28.6c0 2.3-0.9 4.5-2.5 6.2-1.7 1.6-3.9 2.5-6.2 2.5-2.3 0-4.5-0.9-6.1-2.5-1.7-1.7-2.6-3.9-2.6-6.2v-11.9c-0.7 1.5-1.9 2.7-3.4 3.5-1.5 0.7-3.2 0.9-4.8 0.6-1.6-0.4-3.1-1.3-4.1-2.6-1.1-1.3-1.6-2.9-1.6-4.6v-13.6h-0.8v24.4c0 2.4-0.9 4.6-2.5 6.2-1.7 1.6-3.9 2.5-6.2 2.5-2.3 0-4.5-0.9-6.1-2.5-1.7-1.6-2.6-3.8-2.6-6.2v-10.8c0 2-0.8 3.8-2.1 5.2-1.4 1.4-3.3 2.1-5.2 2.1-1.9 0-3.8-0.7-5.2-2.1-1.4-1.4-2.1-3.2-2.1-5.2v-16.1c10.7-18.7 26.3-34.1 45-44.7 18.7-10.6 39.9-15.9 61.4-15.6 21.5 0.4 42.5 6.6 60.9 17.8 18.3 11.3 33.3 27.3 43.3 46.3z"/>
		<path id="Layer" class="s3" d="m722.2 255.8c-1.1 0-2.3-0.2-3.3-0.6-1.1-0.5-2-1.1-2.8-1.9-0.9-0.8-1.5-1.8-1.9-2.8-0.5-1.1-0.7-2.2-0.7-3.4v4.6c0 2.3 0.9 4.5 2.6 6.1 1.6 1.7 3.8 2.6 6.1 2.6 2.3 0 4.5-0.9 6.2-2.6 1.6-1.6 2.5-3.8 2.5-6.1v-4.6c0 1.2-0.2 2.3-0.7 3.4-0.4 1-1 2-1.8 2.8-0.9 0.8-1.8 1.4-2.9 1.9-1 0.4-2.2 0.6-3.3 0.6z"/>
		<path id="Layer" class="s3" d="m739.6 255.8c-1.1 0-2.2-0.2-3.3-0.6-1-0.5-2-1.1-2.8-1.9-0.8-0.8-1.5-1.8-1.9-2.8-0.4-1.1-0.7-2.2-0.7-3.4v4.6c0 2.3 1 4.5 2.6 6.1 1.6 1.7 3.8 2.6 6.1 2.6 2.3 0 4.6-0.9 6.2-2.6 1.6-1.6 2.5-3.8 2.5-6.1v-4.6c0 1.2-0.2 2.3-0.6 3.4-0.5 1-1.1 2-1.9 2.8-0.8 0.8-1.8 1.4-2.8 1.9-1.1 0.4-2.2 0.6-3.4 0.6z"/>
		<path id="Layer" class="s3" d="m713.5 235.2c-0.7 1.5-1.9 2.8-3.4 3.5-1.5 0.7-3.2 0.9-4.8 0.6-1.6-0.4-3.1-1.3-4.1-2.6-1.1-1.3-1.6-2.9-1.6-4.6v4.6c0 1.6 0.5 3.2 1.6 4.5 1 1.3 2.5 2.2 4.1 2.6 1.6 0.4 3.3 0.2 4.8-0.6 1.5-0.7 2.7-1.9 3.4-3.4z"/>
		<path id="Layer" class="s3" d="m730.9 218.5v4.6z"/>
		<path id="Layer" class="s3" d="m681.4 232.1c0 2-0.8 3.8-2.1 5.2-1.4 1.4-3.3 2.1-5.2 2.1-1.9 0-3.8-0.7-5.2-2.1-1.4-1.4-2.1-3.2-2.1-5.2v4.6c0 1.9 0.7 3.8 2.1 5.1 1.4 1.4 3.3 2.2 5.2 2.2 1.9 0 3.8-0.8 5.2-2.2 1.3-1.3 2.1-3.2 2.1-5.1z"/>
		<path id="Layer" class="s3" d="m698.8 218.5h0.8v4.6h-0.8z"/>
		<path id="Layer" class="s3" d="m690.1 251.7c-1.1 0-2.3-0.3-3.3-0.7-1.1-0.4-2-1.1-2.8-1.9-0.8-0.8-1.5-1.8-1.9-2.8-0.5-1.1-0.7-2.2-0.7-3.3v4.5c0 2.3 0.9 4.5 2.6 6.1 1.6 1.7 3.8 2.6 6.1 2.6 2.3 0 4.5-0.9 6.2-2.6 1.6-1.6 2.5-3.8 2.5-6.1v-4.5c0 1.1-0.2 2.2-0.7 3.3-0.4 1-1 2-1.8 2.8-0.8 0.8-1.8 1.5-2.9 1.9-1 0.4-2.1 0.7-3.3 0.7z"/>
		<path id="Layer" class="s3" d="m771 255.8c-1.1 0-2.2-0.2-3.3-0.6-1.1-0.5-2-1.1-2.8-1.9-0.8-0.8-1.5-1.8-1.9-2.8-0.4-1.1-0.7-2.2-0.7-3.4v4.6c0 2.3 1 4.5 2.6 6.1 1.6 1.7 3.8 2.6 6.1 2.6 2.3 0 4.5-0.9 6.2-2.6 1.6-1.6 2.5-3.8 2.5-6.1v-4.6c0 1.2-0.2 2.3-0.6 3.4-0.5 1-1.1 2-1.9 2.8-0.8 0.8-1.8 1.4-2.8 1.9-1.1 0.4-2.2 0.6-3.4 0.6z"/>
		<path id="Layer" class="s3" d="m834.9 213.6c0-0.8-0.3-1.5-0.9-2.1-0.5-0.5-1.3-0.9-2.1-0.9-0.8 0-1.5 0.4-2.1 0.9-0.5 0.6-0.8 1.3-0.8 2.1v4.5c0-0.7 0.3-1.5 0.8-2 0.6-0.6 1.3-0.9 2.1-0.9 0.8 0 1.6 0.3 2.1 0.9 0.6 0.5 0.9 1.3 0.9 2z"/>
		<path id="Layer" class="s3" d="m762.3 232.1c0 1.7-0.5 3.3-1.6 4.6-1 1.3-2.5 2.2-4.2 2.6-1.6 0.3-3.3 0.1-4.8-0.6-1.5-0.8-2.7-2-3.4-3.6v4.6c0.7 1.5 1.9 2.7 3.4 3.5 1.5 0.7 3.2 1 4.8 0.6 1.7-0.3 3.2-1.2 4.2-2.5 1.1-1.3 1.6-3 1.6-4.6z"/>
		<path id="Layer" class="s3" d="m821.3 243.6q-1.5 0-2.8-0.5-1.4-0.6-2.4-1.6-1-1-1.6-2.4-0.5-1.3-0.5-2.8l-0.9-17.8v4.6l0.9 17.7c0 2 0.7 3.8 2.1 5.2 1.4 1.4 3.2 2.2 5.2 2.2 1.9 0 3.8-0.8 5.2-2.2 1.3-1.4 2.1-3.2 2.1-5.2l0.4-17.7v-4.6l-0.4 17.8q0 1.5-0.6 2.8-0.5 1.4-1.5 2.4-1.1 1-2.4 1.6-1.4 0.5-2.8 0.5z"/>
		<path id="Layer" class="s3" d="m870.1 247.1q-0.7 0-1.5-0.1-0.7-0.2-1.4-0.5-0.6-0.3-1.3-0.7-0.6-0.4-1.1-0.9v2.2c0 2.4-0.9 4.6-2.5 6.2-1.7 1.6-3.9 2.5-6.2 2.5-2.3 0-4.5-0.9-6.1-2.5-1.6-1.6-2.6-3.8-2.6-6.2v-1.9c-1 1-2.3 1.6-3.7 1.8-1.4 0.3-2.8 0.1-4.1-0.5-1.3-0.6-2.4-1.5-3.2-2.7-0.8-1.2-1.2-2.6-1.2-4l-0.3-21.3v4.6l0.3 21.2c0 1.4 0.4 2.8 1.2 4 0.8 1.2 1.9 2.1 3.2 2.7 1.3 0.6 2.7 0.8 4.1 0.6 1.4-0.3 2.7-0.9 3.7-1.8v1.9c0 2.3 1 4.5 2.6 6.1 1.6 1.7 3.8 2.6 6.1 2.6 2.3 0 4.5-0.9 6.2-2.6 1.6-1.6 2.5-3.8 2.5-6.1v-2.3c1 1.1 2.3 1.8 3.8 2.1 1.4 0.3 2.9 0.2 4.2-0.4 1.4-0.5 2.6-1.5 3.4-2.7 0.8-1.2 1.2-2.6 1.2-4.1v-4.5q0 1.5-0.5 2.8-0.6 1.3-1.6 2.4-1 1-2.4 1.6-1.3 0.5-2.8 0.5z"/>
		<path id="Layer" class="s3" d="m795.5 243.6q-0.9 0-1.7-0.2-0.8-0.1-1.5-0.5-0.8-0.4-1.4-0.9-0.7-0.5-1.2-1.2-0.9 1.1-2.1 1.8-1.2 0.8-2.6 1-1.4 0.2-2.8-0.2-1.3-0.3-2.5-1.1v4.5q1.2 0.8 2.5 1.2 1.4 0.3 2.8 0.1 1.4-0.2 2.6-0.9 1.2-0.7 2.1-1.8c1 1.2 2.2 2 3.7 2.5 1.5 0.4 3 0.4 4.5-0.1 1.4-0.5 2.7-1.5 3.5-2.7 0.9-1.2 1.4-2.7 1.4-4.3l0.5-17.7v-4.6l-0.5 17.8q0 1.5-0.6 2.8-0.5 1.4-1.6 2.4-1 1-2.3 1.6-1.4 0.5-2.8 0.5z"/>
		<path id="Layer" class="s3" d="m813.1 209.4c0-1.3-0.6-2.5-1.5-3.4-0.9-0.9-2.1-1.4-3.4-1.4-1.3 0-2.5 0.5-3.4 1.4-0.9 0.9-1.5 2.1-1.5 3.4v4.6c0-1.3 0.6-2.6 1.5-3.5 0.9-0.9 2.1-1.4 3.4-1.4 1.3 0 2.5 0.5 3.4 1.4 0.9 0.9 1.5 2.2 1.5 3.5z"/>
		<path id="Layer" class="s1" d="m730.1 210.3h1.7v9.4h-1.7z"/>
		<path id="Layer" class="s1" d="m763 205.3h1.8v9.4h-1.8z"/>
		<path id="Layer" class="s1" d="m855.1 210.8h1.8v9.5h-1.8z"/>
		<path id="Layer" class="s1" d="m721.2 242.2h1.7v9.5h-1.7z"/>
		<path id="Layer" class="s1" d="m792.7 224.8l1.5 1-5.4 7.7-1.4-1z"/>
		<path id="Layer" class="s1" d="m700.7 212.3l1.1-1.4 7.4 5.8-1.1 1.4z"/>
		<path id="Layer" class="s1" d="m803.3 177l1-1.3 7.4 5.8-1 1.4z"/>
		<path id="Layer" class="s1" d="m681.5 222l1.1-1.3 7.4 5.8-1.1 1.4z"/>
		<path id="Layer" class="s4" d="m736.5 188.2h1.8v9.4h-1.8z"/>
		<path id="Layer" class="s4" d="m688.7 236.7h1.8v9.4h-1.8z"/>
		<path id="Layer" class="s4" d="m770.4 174.6h1.7v9.4h-1.7z"/>
		<path id="Layer" class="s4" d="m854.1 233.5h1.7v9.4h-1.7z"/>
		<path id="Layer" class="s4" d="m780.2 206.8l1.6 0.8-4.2 8.4-1.6-0.8z"/>
		<path id="Layer" class="s4" d="m772.2 241.6l1.6 0.8-4.3 8.4-1.5-0.7z"/>
		<path id="Layer" class="s4" d="m868.5 226l1.5 0.7-4.2 8.5-1.5-0.8z"/>
		<path id="Layer" class="s4" d="m748.6 224.6l1.2-1.3 7 6.2-1.1 1.3z"/>
		<path id="Layer" class="s4" d="m714.1 183.8l1.2-1.3 7 6.2-1.1 1.3z"/>
		<path id="Layer" class="s4" d="m828.9 199.5l1.1-1.3 7.1 6.2-1.2 1.3z"/>
		<path id="Layer" class="s4" d="m786.7 168.8l1.1-1.3 7.1 6.2-1.2 1.3z"/>
		<path id="Layer" class="s5" d="m749.8 205.3h1.7v9.4h-1.7z"/>
		<path id="Layer" class="s5" d="m848.3 210.5l1.6 0.7-3.7 8.7-1.6-0.7z"/>
		<path id="Layer" class="s5" d="m715.1 221.3l1.5-0.8 4.7 8.1-1.5 0.9z"/>
		<path id="Layer" class="s5" d="m814.9 214.7l1.5-0.9 4.7 8.2-1.5 0.9z"/>
		<path id="Layer" class="s5" d="m752.8 180.2l1.5-0.9 4.7 8.2-1.5 0.8z"/>
		<path id="Layer" class="s5" d="m826.7 178.4l1.5-0.8 4.7 8.1-1.5 0.9z"/>
		<path id="Layer" class="s5" d="m730.8 170.8l1.5-0.9 4.7 8.1-1.5 0.9z"/>
		<path id="Layer" class="s5" d="m793.4 186.4h1.7v9.5h-1.7z"/>
		<path id="Layer" class="s5" d="m692.9 202.1h1.8v9.4h-1.8z"/>
	</g>
	<g id="person 1">
		<path id="Layer" class="s6" d="m354.3 546.2c-23.3 0-42.1-18.8-42.1-42 0-23.3 18.8-42 42.1-42 23.2 0 42 18.7 42 42 0 23.2-18.8 42-42 42z"/>
		<path id="Layer" class="s6" d="m383 555.7l-12.5 2.3-4.1-22.5 12.6-2.3z"/>
		<path id="Layer" class="s6" d="m357.9 560.3l-12.5 2.2-4.1-22.5 12.6-2.2z"/>
		<path id="Layer" class="s6" d="m352 567.3c-4.5 3.8-9.2 5.5-10.7 3.8-1.4-1.7 1.1-6.1 5.6-9.9 4.5-3.8 9.2-5.5 10.7-3.8 1.4 1.6-1.1 6.1-5.6 9.9z"/>
		<path id="Layer" class="s6" d="m376.6 562.8c-4.5 3.8-9.2 5.5-10.7 3.8-1.4-1.6 1.1-6.1 5.6-9.9 4.5-3.8 9.2-5.5 10.7-3.8 1.4 1.7-1.1 6.1-5.6 9.9z"/>
		<path id="Layer" class="s4" d="m351.3 508.3c-7.9 0-14.3-6.5-14.3-14.4 0-7.9 6.4-14.4 14.3-14.4 8 0 14.4 6.5 14.4 14.4 0 7.9-6.4 14.4-14.4 14.4z"/>
		<path id="Layer" class="s1" d="m345.4 493.5c-2.6 0-4.8-2.1-4.8-4.7 0-2.7 2.2-4.8 4.8-4.8 2.7 0 4.8 2.1 4.8 4.8 0 2.6-2.1 4.7-4.8 4.7z"/>
		<path id="Layer" class="s7" d="m387.4 458.5c0.6-15.6-12.8-28.8-29.9-29.5-17.2-0.6-31.6 11.4-32.3 26.9-0.6 15.6 11.3 19.1 28.5 19.8 17.2 0.7 33.1-1.7 33.7-17.2z"/>
		<path id="Layer" class="s6" d="m335.9 501.2c-0.8 3.6-10.6 4.3-21.9 1.8-11.3-2.6-19.8-7.6-19-11.2 0.8-3.5 10.6-4.3 21.9-1.7 11.4 2.6 19.9 7.6 19 11.1z"/>
		<path id="Layer" class="s6" d="m418.4 514.9c-0.8 3.6-10.6 4.4-21.9 1.8-11.4-2.6-19.9-7.6-19-11.2 0.8-3.5 10.6-4.3 21.9-1.7 11.3 2.6 19.8 7.6 19 11.1z"/>
		<path id="Layer" class="s4" d="m365.8 520.7c0.5 2.5-0.1 5.1-1.6 7.2-1.4 2.1-3.6 3.5-6.1 4-2.5 0.4-5.1-0.1-7.2-1.6-2.1-1.4-3.5-3.7-3.9-6.2-1-5.2 3-7 8.2-7.9 5.2-1 9.7-0.7 10.6 4.5z"/>
	</g>
	<g id="person 2">
		<path id="Layer" class="s6" d="m561.6 555.4c-23.8 0-43-19.3-43-43.1 0-23.8 19.2-43.1 43-43.1 23.9 0 43.1 19.3 43.1 43.1 0 23.8-19.2 43.1-43.1 43.1z"/>
		<path id="Layer" class="s6" d="m542 546.1h13.1v23.4h-13.1z"/>
		<path id="Layer" class="s6" d="m568.2 546.1h13.1v23.4h-13.1z"/>
		<path id="Layer" class="s6" d="m552.9 573.9c-6 0-10.9-1.8-10.9-4.1 0-2.3 4.9-4.1 10.9-4.1 6.1 0 10.9 1.8 10.9 4.1 0 2.3-4.8 4.1-10.9 4.1z"/>
		<path id="Layer" class="s6" d="m579.1 573.3c-6 0-10.9-1.8-10.9-4 0-2.3 4.9-4.1 10.9-4.1 6 0 10.9 1.8 10.9 4.1 0 2.2-4.9 4-10.9 4z"/>
		<path id="Layer" class="s4" d="m562.7 516.1c-8.1 0-14.7-6.6-14.7-14.7 0-8.2 6.6-14.7 14.7-14.7 8.2 0 14.8 6.5 14.8 14.7 0 8.1-6.6 14.7-14.8 14.7z"/>
		<path id="Layer" class="s1" d="m562.7 506.3c-2.7 0-4.9-2.2-4.9-4.9 0-2.7 2.2-4.9 4.9-4.9 2.8 0 4.9 2.2 4.9 4.9 0 2.7-2.1 4.9-4.9 4.9z"/>
		<path id="Layer" class="s7" d="m519.9 472.2c-3.5-15.5 7.6-31.3 24.8-35.1 17.2-3.9 33.9 5.7 37.4 21.2 3.5 15.6-7.9 21.4-25.1 25.2-17.2 3.8-33.7 4.3-37.1-11.3z"/>
	</g>
	<g id="person 3">
		<path id="Layer" class="s6" d="m593.1 358.4c-4.3 11.1-10.6 19.1-14.1 17.7-3.4-1.3-2.8-11.4 1.4-22.5 4.3-11.1 10.5-19 14-17.7 3.5 1.3 2.9 11.4-1.3 22.5z"/>
		<path id="Layer" class="s6" d="m546.9 431.6c-23.8 0-43-19.3-43-43.1 0-23.8 19.2-43 43-43 23.8 0 43.1 19.2 43.1 43 0 23.8-19.3 43.1-43.1 43.1z"/>
		<path id="Layer" class="s6" d="m527.3 422.3h13.1v23.5h-13.1z"/>
		<path id="Layer" class="s6" d="m553.5 422.3h13.1v23.5h-13.1z"/>
		<path id="Layer" class="s6" d="m538.2 450.1c-6 0-10.9-1.8-10.9-4.1 0-2.2 4.9-4 10.9-4 6 0 10.9 1.8 10.9 4 0 2.3-4.9 4.1-10.9 4.1z"/>
		<path id="Layer" class="s6" d="m564.4 449.6c-6.1 0-10.9-1.8-10.9-4.1 0-2.3 4.8-4.1 10.9-4.1 6 0 10.9 1.8 10.9 4.1 0 2.3-4.9 4.1-10.9 4.1z"/>
		<path id="Layer" class="s4" d="m548 392.3c-8.1 0-14.7-6.5-14.7-14.7 0-8.1 6.6-14.7 14.7-14.7 8.2 0 14.7 6.6 14.7 14.7 0 8.2-6.5 14.7-14.7 14.7z"/>
		<path id="Layer" class="s1" d="m548 382.5c-2.7 0-4.9-2.2-4.9-4.9 0-2.7 2.2-4.9 4.9-4.9 2.7 0 4.9 2.2 4.9 4.9 0 2.7-2.2 4.9-4.9 4.9z"/>
		<path id="Layer" class="s7" d="m505.2 348.5c-3.5-15.6 7.6-31.3 24.8-35.2 17.2-3.8 33.9 5.7 37.4 21.3 3.5 15.6-7.9 21.3-25.1 25.1-17.2 3.9-33.7 4.4-37.1-11.2z"/>
		<path id="Layer" class="s6" d="m517.9 377.8c-1.6 3.4-11.6 2-22.4-3.1-10.7-5.1-18.1-12-16.5-15.4 1.6-3.4 11.6-2 22.3 3.1 10.8 5.1 18.2 12 16.6 15.4z"/>
		<path id="Layer" class="s4" d="m525.8 404.1c0 4.2 10.8 12.5 22.9 12.5 12 0 23.3-11.9 23.3-16.1 0-4.2-11.3 0.8-23.3 0.8-12.1 0-22.9-1.4-22.9 2.8z"/>
	</g>
	<g id="ball">
		<path id="Layer" class="s2" d="m672.7 447.7c-3.3 0-6-2.7-6-6 0-3.3 2.7-6 6-6 3.3 0 6 2.7 6 6 0 3.3-2.7 6-6 6z"/>
		<path id="Layer" class="s2" d="m689 399.3c-3.3 0-6-2.7-6-6 0-3.4 2.7-6 6-6 3.4 0 6 2.6 6 6 0 3.3-2.6 6-6 6z"/>
		<path id="Layer" class="s2" d="m674.1 374.5c-3.3 0-6-2.7-6-6 0-3.3 2.7-6 6-6 3.3 0 6 2.7 6 6 0 3.3-2.7 6-6 6z"/>
		<path id="Layer" class="s2" d="m669.7 486.7c-3.3 0-6-2.7-6-6 0-3.3 2.7-6 6-6 3.3 0 6 2.7 6 6 0 3.3-2.7 6-6 6z"/>
	</g>
	<g id="person 4">
		<path id="Layer" class="s6" d="m625.5 548.1l-3.2-11.6 20.9-5.8 3.2 11.6z"/>
		<path id="Layer" class="s6" d="m623.8 550.2c-2.1 0.5-4.9-3.3-6.4-8.7-1.5-5.4-1-10.2 1-10.8 2-0.5 4.8 3.4 6.3 8.8 1.5 5.3 1.1 10.1-0.9 10.7z"/>
		<path id="Layer" class="s6" d="m688.3 496.3c-1.4 10.9-5.4 19.4-8.8 18.9-3.5-0.4-5.1-9.7-3.6-20.6 1.5-10.9 5.5-19.4 8.9-18.9 3.4 0.5 5 9.7 3.5 20.6z"/>
		<path id="Layer" class="s6" d="m678.2 572.7c-22 0-39.8-17.9-39.8-39.9 0-22.1 17.8-39.9 39.8-39.9 22.1 0 39.9 17.8 39.9 39.9 0 22-17.8 39.9-39.9 39.9z"/>
		<path id="Layer" class="s6" d="m625.5 541.1l-3.2-11.7 20.9-5.8 3.2 11.7z"/>
		<path id="Layer" class="s6" d="m623.8 543.1c-2.1 0.6-4.9-3.3-6.4-8.7-1.5-5.4-1-10.2 1-10.7 2-0.6 4.8 3.3 6.3 8.7 1.5 5.4 1.1 10.2-0.9 10.7z"/>
		<path id="Layer" class="s4" d="m688.7 523.6c-7.5 0-13.6-6.1-13.6-13.7 0-7.5 6.1-13.6 13.6-13.6 7.5 0 13.6 6.1 13.6 13.6 0 7.6-6.1 13.7-13.6 13.7z"/>
		<path id="Layer" class="s1" d="m693.1 508.5c-2.6 0-4.6-2.1-4.6-4.6 0-2.5 2-4.5 4.6-4.5 2.5 0 4.5 2 4.5 4.5 0 2.5-2 4.6-4.5 4.6z"/>
		<path id="Layer" class="s7" d="m724.3 560.2c14.7-0.8 26-14.6 25.2-30.8-0.8-16.3-13.4-28.9-28.2-28.2-14.7 0.7-17.1 12.3-16.2 28.6 0.8 16.3 4.4 31.1 19.2 30.4z"/>
		<path id="Layer" class="s4" d="m661.9 515.9c-2.4 0.2-4.8-0.6-6.6-2.1-1.8-1.6-3-3.8-3.2-6.2-0.2-2.4 0.6-4.8 2.2-6.6 1.5-1.9 3.8-3 6.2-3.2 5-0.4 6.3 3.6 6.7 8.6 0.4 5-0.3 9.1-5.3 9.5z"/>
		<path id="Layer" class="s6" d="m673.4 505.8c-1.5 10.9-5.5 19.4-8.9 18.9-3.4-0.5-5-9.7-3.5-20.6 1.4-10.9 5.4-19.4 8.8-18.9 3.5 0.4 5 9.7 3.6 20.6z"/>
	</g>
	<path id="part" class="s2" d="m634.7 342.7c0.2-1.1 0.1-2.2-0.2-3.2-0.3-1-0.9-1.9-1.6-2.7-0.7-0.8-1.5-1.5-2.5-1.9-1-0.4-2-0.7-3.1-0.6h-2.4q0.2-0.4 0.4-0.9 0.2-0.4 0.3-0.8 0.1-0.5 0.1-0.9 0.1-0.5 0.1-0.9 0-1.5-0.6-2.9-0.6-1.4-1.6-2.4-1.1-1.1-2.4-1.7-1.4-0.5-2.9-0.5h-25c-2 0-3.9 0.7-5.3 2.2-1.4 1.4-2.2 3.3-2.2 5.3 0 1.9 0.8 3.9 2.2 5.3 1.4 1.4 3.3 2.2 5.3 2.2h2.4q-0.2 0.4-0.4 0.8-0.2 0.4-0.3 0.8-0.1 0.5-0.1 0.9-0.1 0.5-0.1 1 0 1.1 0.4 2.2 0.3 1.1 1 2.1 0.7 1 1.6 1.7 1 0.7 2.1 1c-0.2 1.1-0.1 2.2 0.2 3.2 0.3 1 0.9 1.9 1.6 2.7 0.7 0.8 1.5 1.5 2.5 1.9 1 0.4 2 0.7 3.1 0.7h25c1.8 0 3.5-0.7 4.8-1.8 1.4-1.2 2.3-2.8 2.6-4.5 0.3-1.8-0.1-3.6-1-5.1-0.9-1.5-2.3-2.7-4-3.2z"/>
</svg>